<svg width="114" height="82" viewBox="0 0 114 82" fill="none" xmlns="http://www.w3.org/2000/svg">
<g clip-path="url(#clip0_138_2652)">
<path d="M94.89 79.2407L90.3547 81.9999L85.3247 79.2407V22.0737H94.89V79.2407Z" fill="#FFCC02"/>
<path d="M96.1478 16.5554H84.0469V28.0828H96.1478V16.5554Z" fill="#FFCC02"/>
<path d="M62.9577 61.03H0V81.4483H62.9577V61.03Z" fill="#2C353D"/>
<path d="M62.9577 0.102295H0V61.1322H62.9577V0.102295Z" fill="#353F49"/>
<path d="M62.9575 63.4009H3.79297V78.8525H62.9575V63.4009Z" fill="#F2F2F2"/>
<path d="M62.9575 66.4871H3.79297V67.7747H62.9575V66.4871Z" fill="#CDCCCA"/>
<path d="M62.9575 74.6011H3.79297V75.8887H62.9575V74.6011Z" fill="#CDCCCA"/>
<path d="M62.9575 70.5339H3.79297V71.8216H62.9575V70.5339Z" fill="#CDCCCA"/>
<path d="M4.61794 63.4009H2.30908V78.8525H4.61794V63.4009Z" fill="#FFCC02"/>
<path d="M49.7022 31.5163H49.6404L44.0744 21.0109H44.7341V19.4984H43.1055V19.8663H33.1691V19.3145H29.7471V19.8663H19.0892V19.4984H17.4606V21.0109H18.1821L13.2552 31.5163H13.1934C13.8943 34.6639 16.1825 35.8494 18.6357 35.8494C19.5427 35.8494 20.4086 35.6654 21.1713 35.2975C22.4494 34.6639 23.4595 33.4376 24.078 31.5163H24.0161L18.4501 21.0109H19.1098V20.5408H29.7677V21.3788H30.9427V43.4525H29.7471V44.7402H29.0255V46.0891H21.7279V48.0104H41.2089V46.0891H33.9113V44.7402H33.1897V43.4525H31.9941V21.3788H33.1897V20.5408H43.1261V21.0109H43.8476L38.9207 31.5163H38.8588C39.5597 34.6639 41.848 35.8494 44.2805 35.8494C45.1876 35.8494 46.0534 35.6654 46.8161 35.2975C48.0737 34.6639 49.1044 33.4376 49.7228 31.5163H49.7022ZM18.5738 31.5163H13.6263L18.3265 21.5014L23.6245 31.5163H18.5738ZM39.2711 31.5163L43.9713 21.5014L49.2693 31.5163H39.2711Z" fill="white"/>
<path d="M108.331 2.24829H71.9043V21.2971H108.331V2.24829Z" fill="#FFCC02"/>
<path d="M77.285 0H66.2148V23.5658H77.285V0Z" fill="#FFCC02"/>
<path d="M114 0H102.93V23.5658H114V0Z" fill="#FFCC02"/>
<path d="M102.992 3.63818H77.2026V11.7932H102.992V3.63818Z" fill="#FFCC02"/>
<path d="M93.7562 5.39575H78.8311V6.39725H93.7562V5.39575Z" fill="white"/>
<path d="M86.2937 22.4417H85.4072V26.5703H86.2937V22.4417Z" fill="white"/>
<path d="M73.7805 0H66.2148V20.0504H73.7805V0Z" fill="#FFCC02"/>
<path d="M110.702 0H105.156V20.0504H110.702V0Z" fill="#FFCC02"/>
<path d="M69.101 1.45117H68.2764V9.54489H69.101V1.45117Z" fill="white"/>
<path d="M107.362 1.45117H106.599V6.84698H107.362V1.45117Z" fill="white"/>
<path d="M85.3247 79.2407L90.3547 81.9999L91.8596 81.0802V30.658H85.3247V79.2407Z" fill="#FFCC02"/>
</g>
<defs>
<clipPath id="clip0_138_2652">
<rect width="114" height="82" fill="white"/>
</clipPath>
</defs>
</svg>
