<svg width="116" height="78" viewBox="0 0 116 78" fill="none" xmlns="http://www.w3.org/2000/svg">
<g clip-path="url(#clip0_138_2601)">
<path d="M82.8867 58.7102H33.3716V74.8594H82.8867V58.7102Z" fill="#FFCC02"/>
<path d="M82.8867 10.5029H33.3716V58.7788H82.8867V10.5029Z" fill="#FFCC02"/>
<path d="M82.8867 60.5808H36.3662V72.8H82.8867V60.5808Z" fill="#F2F2F2"/>
<path d="M82.8867 63.0178H36.3662V64.0304H82.8867V63.0178Z" fill="#CDCCCA"/>
<path d="M82.8867 69.4363H36.3662V70.4488H82.8867V69.4363Z" fill="#CDCCCA"/>
<path d="M82.8867 66.2271H36.3662V67.2396H82.8867V66.2271Z" fill="#CDCCCA"/>
<path d="M36.9858 60.5808H35.1787V72.8H36.9858V60.5808Z" fill="#353F49"/>
<path d="M58.2237 18.895C49.1709 18.895 41.8047 26.2402 41.8047 35.2673C41.8047 38.8713 42.9922 42.2006 44.9887 44.9122C44.9887 44.9122 45.5222 45.7874 45.6255 45.7531C48.6373 49.3399 53.1637 51.6396 58.2237 51.6396C67.2765 51.6396 74.6427 44.2944 74.6427 35.2673C74.6427 26.2402 67.2765 18.895 58.2237 18.895ZM58.8949 27.6647V20.4224C59.1186 20.5769 62.5608 22.928 64.9186 27.0812C63.318 27.3729 61.3044 27.6132 58.8949 27.6818V27.6647ZM65.5554 28.3168C66.416 30.1359 67.0011 32.2297 67.07 34.5808H58.8949V28.9861C61.597 28.9175 63.8172 28.6429 65.5554 28.2996V28.3168ZM58.8949 20.2508C58.8949 20.2508 58.9293 20.2508 58.9465 20.2508L58.8949 20.3366V20.2508ZM57.5525 27.6818C55.2462 27.6818 53.267 27.4759 51.6148 27.2013C53.7317 23.3914 56.778 21.0746 57.5525 20.5254V27.6818ZM57.5525 29.0204V34.5808H49.5323C49.6011 32.2812 50.1691 30.2389 50.978 28.4541C52.7679 28.7802 54.9536 29.0204 57.5353 29.0204H57.5525ZM48.1898 34.5808H43.1815C43.302 31.7663 44.197 29.1406 45.6771 26.9267C46.245 27.1841 47.5703 27.7161 49.6011 28.1795C48.7922 30.0501 48.2415 32.1782 48.1898 34.5808ZM48.2071 35.9194C48.3447 38.5967 49.0676 40.9821 50.083 43.0072C48.2931 43.3505 46.9507 43.7795 46.0557 44.1056C44.3519 41.7887 43.302 38.9742 43.1643 35.9194H48.2071ZM49.5495 35.9194H57.5353V42.3894C57.3631 42.3894 57.2082 42.3894 57.0361 42.3894C54.9192 42.3894 53.0777 42.5439 51.4943 42.7841C50.4617 40.8277 49.7044 38.5109 49.5495 35.9366V35.9194ZM57.0361 43.7109C57.2082 43.7109 57.3631 43.7109 57.5353 43.7109V50.0092C56.8124 49.4429 54.248 47.332 52.1999 44.0198C53.6112 43.831 55.229 43.7109 57.0361 43.7109ZM58.8777 43.7452C60.9258 43.831 62.664 44.0198 64.1097 44.2772C62.1477 47.2462 59.7898 49.2026 58.8777 49.9062V43.7623V43.7452ZM58.8777 42.4066V35.9194H67.0355C66.8807 38.631 66.0029 41.0336 64.867 43.0416C63.2664 42.7498 61.27 42.4924 58.8777 42.4066ZM68.378 35.9194H73.2486C73.1109 39.1802 71.9234 42.1835 69.9958 44.5861C69.6688 44.4317 68.4468 43.8653 66.2611 43.3505C67.397 41.2396 68.2231 38.7511 68.378 35.9194ZM68.3952 34.5808C68.3264 32.1095 67.7584 29.9128 66.8979 28.0079C69.2901 27.4244 70.4777 26.8066 70.5809 26.7551L70.4433 26.5148C72.0955 28.8145 73.1109 31.5775 73.2314 34.5808H68.378H68.3952ZM69.7893 25.6567C69.4106 25.8284 68.2575 26.326 66.2955 26.7722C64.7293 23.8548 62.6468 21.7439 61.2011 20.5082C64.6261 21.1947 67.6379 23.0653 69.7893 25.6396V25.6567ZM55.4011 20.4911C53.9382 21.7267 51.7697 23.9062 50.1863 26.9267C48.3792 26.532 47.14 26.0858 46.486 25.8112C48.689 23.0996 51.8213 21.1604 55.4011 20.4911ZM46.9507 45.2211C47.8456 44.9122 49.102 44.5518 50.737 44.26C52.2688 46.8858 54.1447 48.8594 55.4355 50.0264C52.0795 49.4085 49.1192 47.6752 46.9335 45.2211H46.9507ZM60.8397 50.0435C62.1305 48.9109 64.0065 47.0574 65.5726 44.5689C67.397 44.9637 68.5501 45.4099 69.0836 45.6501C66.9151 47.8983 64.0581 49.4772 60.8397 50.0435Z" fill="#353F49"/>
<path d="M27.296 78C17.3655 68.4238 11.9097 55.6726 11.9097 42.0634C11.9097 29.501 16.677 17.4535 25.3168 8.15186L26.0052 8.78684C17.5203 17.9169 12.8563 29.7241 12.8563 42.0634C12.8563 55.4152 18.226 67.9261 27.95 77.3136L27.296 78Z" fill="#353F49"/>
<path d="M12.925 61.0957C15.3001 61.8508 18.4497 66.0211 18.4497 66.0211C18.4497 66.0211 13.2348 68.3208 10.8598 67.5657C8.48469 66.8106 4.40576 61.5763 4.40576 61.5763C4.40576 61.5763 10.5328 60.3406 12.9078 61.0957H12.925Z" fill="#2C353D"/>
<path d="M24.7488 62.4343C23.2515 64.425 18.2604 66.0039 18.2604 66.0039C18.2604 66.0039 17.8129 60.3406 19.3102 58.3498C20.8076 56.359 27.1239 54.2825 27.1239 54.2825C27.1239 54.2825 26.2633 60.4607 24.766 62.4514L24.7488 62.4343Z" fill="#2C353D"/>
<path d="M8.39881 40.6388C10.5501 41.9087 12.6843 46.6797 12.6843 46.6797C12.6843 46.6797 7.0908 47.7437 4.93947 46.4909C2.78813 45.221 0 39.2144 0 39.2144C0 39.2144 6.24748 39.386 8.39881 40.6388Z" fill="#2C353D"/>
<path d="M19.6203 44.6031C17.71 46.1992 12.4951 46.6282 12.4951 46.6282C12.4951 46.6282 13.3384 40.9992 15.2488 39.4031C17.1592 37.8071 23.7681 37.1721 23.7681 37.1721C23.7681 37.1721 21.5307 43.0071 19.6203 44.6031Z" fill="#2C353D"/>
<path d="M13.9921 19.118C15.3862 21.1774 15.2829 26.3946 15.2829 26.3946C15.2829 26.3946 9.7583 24.9873 8.34702 22.9451C6.95296 20.8857 6.98738 14.2612 6.98738 14.2612C6.98738 14.2612 12.5809 17.0586 13.9749 19.118H13.9921Z" fill="#2C353D"/>
<path d="M22.46 27.4586C20.0506 28.0936 15.1455 26.2573 15.1455 26.2573C15.1455 26.2573 18.3123 21.5207 20.7218 20.8857C23.1313 20.2507 29.3787 22.4817 29.3787 22.4817C29.3787 22.4817 24.8695 26.8065 22.46 27.4415V27.4586Z" fill="#2C353D"/>
<path d="M29.7229 8.11742C28.174 10.0739 23.1484 11.5498 23.1484 11.5498C23.1484 11.5498 22.8214 5.86924 24.3704 3.92996C25.9194 1.97353 32.2701 0.0170898 32.2701 0.0170898C32.2701 0.0170898 31.2719 6.17815 29.7229 8.13458V8.11742Z" fill="#2C353D"/>
<path d="M88.7038 78C98.6344 68.4238 104.09 55.6726 104.09 42.0634C104.09 29.501 99.3228 17.4535 90.683 8.15186L89.9946 8.78684C98.4795 17.9169 103.144 29.7241 103.144 42.0634C103.144 55.4152 97.7738 67.9261 88.0498 77.3136L88.7038 78Z" fill="#353F49"/>
<path d="M103.074 61.0957C100.699 61.8508 97.5498 66.0211 97.5498 66.0211C97.5498 66.0211 102.765 68.3208 105.14 67.5657C107.515 66.8106 111.594 61.5763 111.594 61.5763C111.594 61.5763 105.467 60.3406 103.092 61.0957H103.074Z" fill="#2C353D"/>
<path d="M91.2511 62.4343C92.7484 64.425 97.7567 66.0039 97.7567 66.0039C97.7567 66.0039 98.2042 60.3406 96.6896 58.3498C95.1923 56.359 88.876 54.2825 88.876 54.2825C88.876 54.2825 89.7365 60.4607 91.2338 62.4514L91.2511 62.4343Z" fill="#2C353D"/>
<path d="M107.601 40.6388C105.45 41.9087 103.315 46.6797 103.315 46.6797C103.315 46.6797 108.909 47.7437 111.06 46.4909C113.212 45.221 116 39.2144 116 39.2144C116 39.2144 109.752 39.386 107.601 40.6388Z" fill="#2C353D"/>
<path d="M96.3797 44.6031C98.2901 46.1992 103.505 46.6282 103.505 46.6282C103.505 46.6282 102.662 40.9992 100.751 39.4031C98.8408 37.8071 92.2319 37.1721 92.2319 37.1721C92.2319 37.1721 94.4693 43.0071 96.3797 44.6031Z" fill="#2C353D"/>
<path d="M102.025 19.118C100.614 21.1774 100.734 26.3946 100.734 26.3946C100.734 26.3946 106.259 24.9873 107.67 22.9451C109.064 20.8857 109.03 14.2612 109.03 14.2612C109.03 14.2612 103.436 17.0586 102.042 19.118H102.025Z" fill="#2C353D"/>
<path d="M93.5398 27.4586C95.9493 28.0936 100.854 26.2573 100.854 26.2573C100.854 26.2573 97.6876 21.5207 95.2781 20.8857C92.8686 20.2507 86.6211 22.4817 86.6211 22.4817C86.6211 22.4817 91.1303 26.8065 93.5398 27.4415V27.4586Z" fill="#2C353D"/>
<path d="M86.277 8.11742C87.826 10.0739 92.8515 11.5498 92.8515 11.5498C92.8515 11.5498 93.1785 5.86924 91.6296 3.92996C90.0806 1.97353 83.7471 0.0170898 83.7471 0.0170898C83.7471 0.0170898 84.7453 6.17815 86.2943 8.13458L86.277 8.11742Z" fill="#2C353D"/>
</g>
<defs>
<clipPath id="clip0_138_2601">
<rect width="116" height="78" fill="white"/>
</clipPath>
</defs>
</svg>
