<svg width="76" height="125" viewBox="0 0 76 125" fill="none" xmlns="http://www.w3.org/2000/svg">
<g clip-path="url(#clip0_138_2631)">
<path d="M76 100.35H0V125H76V100.35Z" fill="#F77B55"/>
<path d="M76 26.7585H0V100.455H76V26.7585Z" fill="#FF916E"/>
<path d="M75.9999 103.218H4.5918V121.879H75.9999V103.218Z" fill="#F2F2F2"/>
<path d="M75.9999 106.929H4.5918V108.489H75.9999V106.929Z" fill="#CDCCCA"/>
<path d="M75.9999 116.734H4.5918V118.295H75.9999V116.734Z" fill="#CDCCCA"/>
<path d="M75.9999 111.821H4.5918V113.381H75.9999V111.821Z" fill="#CDCCCA"/>
<path d="M72.4921 53.201L49.9366 9.67871H20.7909L11.437 29.774V38.3983V54.4662V78.2094H21.0034V54.1288H23.1506V84.1979H33.1634V54.4662H34.8854V90.2919H44.4518V54.4662H46.599V85.5264H56.6969V56.3428V45.7786L63.9248 56.6802L72.4921 53.201Z" fill="#F77B55"/>
<path d="M5.56956 103.218H2.78467V121.879H5.56956V103.218Z" fill="#353F49"/>
<path d="M70.9405 50.3121L49.3416 6.09399H21.9178L13.1167 26.1893V34.8136V50.8814V74.9621H22.1304V50.8814H24.15V80.6132H33.1637V50.8814H35.1833V86.7072H44.197V50.8814H46.2166V81.9417H55.2303V50.8814V40.3172L63.4574 53.0533L70.9405 50.3121Z" fill="#FFCC02"/>
<path d="M20.8335 67.3708H14.3496V73.1907H20.8335V67.3708Z" fill="white"/>
<path d="M31.9092 72.6213H25.4253V78.4412H31.9092V72.6213Z" fill="white"/>
<path d="M31.9092 72.8955H25.4253V78.7154H31.9092V72.8955Z" fill="white"/>
<path d="M39.0737 6.09399V86.7072H44.1971V50.8814H46.2167V81.9417H55.2304V50.8814V40.3172L63.4575 53.0533L70.9406 50.3121L49.3417 6.09399H39.0737Z" fill="#FFCC02"/>
<path d="M54.0396 74.4771H47.5557V80.2969H54.0396V74.4771Z" fill="white"/>
<path d="M42.8574 79.074H36.3735V84.8938H42.8574V79.074Z" fill="white"/>
<path d="M70.0474 48.4143L67.3262 42.8896L63.606 44.197L66.3483 49.6162L70.0474 48.4143Z" fill="white"/>
<path d="M55.2515 0H15.689V12.2934H55.2515V0Z" fill="#353F49"/>
<path d="M55.2517 0H36.1826V12.2934H55.2517V0Z" fill="#2C353D"/>
</g>
<defs>
<clipPath id="clip0_138_2631">
<rect width="76" height="125" fill="white"/>
</clipPath>
</defs>
</svg>
