<svg width="94" height="91" viewBox="0 0 94 91" fill="none" xmlns="http://www.w3.org/2000/svg">
<g clip-path="url(#clip0_138_2677)">
<path d="M89.6796 42.9212C89.6796 66.625 70.5704 85.8424 47.0002 85.8424C23.4299 85.8424 4.3208 66.625 4.3208 42.9212C4.3208 19.2174 23.4299 0 47.0002 0C70.5704 0 89.6796 19.2174 89.6796 42.9212Z" fill="#F2F2F2"/>
<path d="M65.1607 22.9267C65.1607 33.0123 57.0288 41.1903 47 41.1903C36.9713 41.1903 28.8394 33.0123 28.8394 22.9267C28.8394 12.8411 36.9713 4.66309 47 4.66309C57.0288 4.66309 65.1607 12.8411 65.1607 22.9267Z" fill="white"/>
<path d="M48.2995 18.2283H45.6299V86.231H48.2995V18.2283Z" fill="#2C353D"/>
<path d="M51.3735 79.0774H42.5742V84.4293H51.3735V79.0774Z" fill="#2C353D"/>
<path d="M79.0356 19.2173V17.4863L14.9815 17.4863V19.2173L79.0356 19.2173Z" fill="#2C353D"/>
<path d="M72.0633 85.9836H21.8843V90.9999H72.0633V85.9836Z" fill="#353F49"/>
<path d="M53.2527 82.4509H40.6948V87.8028H53.2527V82.4509Z" fill="#353F49"/>
<path d="M51.4082 16.0557H42.6089V21.4076H51.4082V16.0557Z" fill="#353F49"/>
<path d="M47.9311 87.167H24.3081V88.0325H47.9311V87.167Z" fill="white"/>
<path d="M49.1602 16.9917H43.9438V18.1575H49.1602V16.9917Z" fill="white"/>
<path d="M27.1182 48.3966L13.1903 21.7431L0.878264 48.3789L0.105469 48.0257L13.1552 19.8354L27.8558 48.008L27.1182 48.3966Z" fill="#353F49"/>
<path d="M0 47.9021C1.79148 56.1331 7.71039 59.2241 13.9981 59.2241C20.2859 59.2241 25.4144 55.9388 27.9963 47.9021H0Z" fill="#92E0EA"/>
<path d="M13.8398 59.2241C13.8398 59.2241 13.9452 59.2241 13.9804 59.2241C20.2681 59.2241 25.3966 55.9388 27.9785 47.9021H13.8398V59.2241Z" fill="#77D0DE"/>
<path d="M15.1572 16.5149H10.9771V20.4714H15.1572V16.5149Z" fill="#353F49"/>
<path d="M13.998 17.239H11.5391V18.0339H13.998V17.239Z" fill="white"/>
<path d="M93.1397 48.3966L79.2294 21.7431L66.8998 48.3789L66.1445 48.0257L79.1767 19.8354L93.8773 48.008L93.1397 48.3966Z" fill="#353F49"/>
<path d="M66.0215 47.9021C67.813 56.1331 73.7319 59.2241 80.0196 59.2241C86.3074 59.2241 91.4359 55.9388 94.0177 47.9021H66.039H66.0215Z" fill="#92E0EA"/>
<path d="M79.8613 59.2241C79.8613 59.2241 79.9667 59.2241 80.0018 59.2241C86.2896 59.2241 91.4181 55.9388 94 47.9021H79.8613V59.2241Z" fill="#77D0DE"/>
<path d="M81.1962 16.5149H77.0161V20.4714H81.1962V16.5149Z" fill="#353F49"/>
<path d="M80.0194 17.239H77.5605V18.0339H80.0194V17.239Z" fill="white"/>
</g>
<defs>
<clipPath id="clip0_138_2677">
<rect width="94" height="91" fill="white"/>
</clipPath>
</defs>
</svg>
