<svg width="85" height="85" viewBox="0 0 85 85" fill="none" xmlns="http://www.w3.org/2000/svg">
<g clip-path="url(#clip0_138_2721)">
<path d="M85 42.5072C85 65.9859 65.9714 85.0144 42.5072 85.0144C19.043 85.0144 0 65.9714 0 42.5072C0 19.043 19.0286 0 42.5072 0C65.9859 0 85 19.0286 85 42.5072Z" fill="#F2F2F2"/>
<path d="M42.5071 12.9023C26.1804 12.9023 12.9023 26.1804 12.9023 42.5071C12.9023 49.0378 15.0552 55.0484 18.6384 59.9608C18.6384 59.9608 19.6064 61.5501 19.7942 61.4635C25.2268 67.9652 33.3902 72.1119 42.5071 72.1119C58.8338 72.1119 72.1119 58.8338 72.1119 42.5071C72.1119 26.1804 58.8338 12.9023 42.5071 12.9023ZM43.7208 28.7811V15.6764C44.1398 15.951 50.3382 20.2132 54.586 27.712C51.6819 28.2466 48.0698 28.6656 43.7208 28.7811ZM55.7419 29.9659C57.2734 33.2457 58.357 37.0312 58.4726 41.3079H43.7208V31.2085C48.6044 31.0784 52.6066 30.5872 55.7419 29.9804V29.9659ZM43.7208 15.3875C43.7208 15.3875 43.793 15.3875 43.8219 15.3875L43.7208 15.5464V15.3875ZM41.3079 28.8245C37.1468 28.8245 33.578 28.4633 30.6016 27.9576C34.4305 21.0801 39.9209 16.8757 41.3079 15.8787V28.81V28.8245ZM41.3079 31.2374V41.3079H26.8595C26.9751 37.1468 28.0009 33.448 29.4747 30.226C32.6967 30.8039 36.6411 31.2374 41.3224 31.2374H41.3079ZM24.4322 41.3079H15.3875C15.6186 36.2076 17.2224 31.4541 19.8954 27.4663C20.9357 27.9287 23.3196 28.8823 26.9895 29.7203C25.5303 33.0868 24.5478 36.9589 24.4322 41.3079ZM24.4755 43.7208C24.7211 48.561 26.0359 52.8666 27.842 56.551C24.6056 57.1723 22.1782 57.938 20.5889 58.5304C17.5114 54.3404 15.6186 49.2401 15.3875 43.7208H24.4755ZM26.8884 43.7208H41.2935V55.4096C40.9901 55.4096 40.7011 55.4096 40.3832 55.4096C36.5688 55.4096 33.2313 55.6985 30.3705 56.132C28.5211 52.5777 27.1485 48.4165 26.874 43.7353L26.8884 43.7208ZM40.3977 57.8225C40.7155 57.8225 41.0045 57.8225 41.3079 57.8225V69.2078C39.9931 68.182 35.3696 64.3676 31.6853 58.3715C34.2282 58.0247 37.1323 57.808 40.4121 57.808L40.3977 57.8225ZM43.7208 57.8947C47.4196 58.0392 50.5549 58.4004 53.1412 58.8483C49.6013 64.2086 45.339 67.763 43.7208 69.02V57.9091V57.8947ZM43.7208 55.4818V43.7353H58.4293C58.1403 48.6333 56.5654 52.9678 54.4993 56.6232C51.6096 56.0742 48.0264 55.6407 43.7064 55.4818H43.7208ZM60.8566 43.7353H69.6413C69.3812 49.6447 67.2428 55.0628 63.7896 59.4118C63.2117 59.1228 61.0011 58.097 57.0422 57.1578C59.0795 53.3434 60.5821 48.8355 60.8566 43.7353ZM60.9 41.3224C60.7844 36.8578 59.7296 32.8845 58.2126 29.4458C62.5182 28.4055 64.6854 27.2641 64.8444 27.1774L64.6132 26.7295C67.5896 30.8762 69.4101 35.8898 69.6557 41.3079H60.9144L60.9 41.3224ZM63.4284 25.1835C62.7494 25.5014 60.6688 26.3827 57.1289 27.2063C54.3115 21.9326 50.5405 18.1038 47.9397 15.8932C54.1237 17.1502 59.5418 20.5022 63.4284 25.1835ZM37.4646 15.8354C34.8206 18.0893 30.9051 22.0048 28.0587 27.4808C24.8078 26.7728 22.5539 25.9637 21.3836 25.4725C25.3569 20.5456 31.0062 17.049 37.4646 15.8354ZM22.2216 60.5532C23.8253 60.0042 26.1082 59.354 29.0557 58.8194C31.8153 63.5729 35.1962 67.1272 37.5369 69.2367C31.483 68.1097 26.1515 64.9744 22.2216 60.5532ZM47.2607 69.28C49.6013 67.2428 52.9678 63.8763 55.7852 59.3684C59.065 60.0909 61.1456 60.9 62.1281 61.319C58.2126 65.4079 53.0545 68.2542 47.2607 69.28Z" fill="#77D0DE"/>
<path d="M75.6083 14.5639C75.6083 20.0688 65.6245 33.737 65.6245 33.737C65.6245 33.737 55.6406 20.0832 55.6406 14.5639C55.6406 9.04464 60.1052 4.58008 65.6245 4.58008C71.1438 4.58008 75.6083 9.04464 75.6083 14.5639Z" fill="#F77B55"/>
<path d="M73.7301 14.2173C73.7301 18.6819 70.1035 22.3084 65.639 22.3084C61.1744 22.3084 57.5479 18.6819 57.5479 14.2173C57.5479 9.75277 61.1744 6.12622 65.639 6.12622C70.1035 6.12622 73.7301 9.75277 73.7301 14.2173Z" fill="#FF916E"/>
</g>
<defs>
<clipPath id="clip0_138_2721">
<rect width="85" height="85" fill="white"/>
</clipPath>
</defs>
</svg>
