<svg width="84" height="74" viewBox="0 0 84 74" fill="none" xmlns="http://www.w3.org/2000/svg">
<g clip-path="url(#clip0_138_2714)">
<path d="M79.1756 44.127C79.1756 60.6209 65.6487 74.0001 48.9728 74.0001C32.2969 74.0001 18.77 60.6209 18.77 44.127C18.77 27.6331 32.2814 14.2539 48.9728 14.2539C65.6642 14.2539 79.1756 27.6331 79.1756 44.127Z" fill="#92E0EA"/>
<path d="M59.909 39.662C62.7788 31.7603 65.2608 28.4308 68.1462 25.5157C71.2331 22.4163 81.3162 14.0083 81.3162 14.0083L67.898 3.37549C67.898 3.37549 61.8171 14.9596 59.4282 18.5959C57.1944 22.0174 54.4486 25.1474 47.2664 29.6276C40.0996 34.1232 31.8935 34.3073 31.8935 34.3073C31.8935 34.3073 33.4913 42.255 31.3661 50.4329C29.2409 58.6108 23.2065 70.0415 23.2065 70.0415L23.7185 70.4404L42.9849 46.6585C42.0542 45.5231 42.0077 43.8661 42.9694 42.6846C44.0708 41.3191 46.0874 41.1043 47.468 42.1937C48.8486 43.283 49.0658 45.2776 47.9644 46.6432C47.0027 47.8246 45.3583 48.1468 44.0398 47.487L24.7733 71.2689L25.2852 71.6678C25.2852 71.6678 35.2442 63.3365 42.8453 59.5161C50.4464 55.6803 58.637 55.4962 58.637 55.4962C58.637 55.4962 57.0392 47.5484 59.909 39.6467V39.662Z" fill="#2C353D"/>
<path d="M67.9136 3.39084L81.3319 14.0083L84 10.7249L70.4731 0L67.9136 3.39084Z" fill="#353F49"/>
<path d="M0 70.0415H23.2066L25.2853 71.6832L0 71.6986V70.0415Z" fill="#77D0DE"/>
</g>
<defs>
<clipPath id="clip0_138_2714">
<rect width="84" height="74" fill="white"/>
</clipPath>
</defs>
</svg>
